<svg aria-hidden="true" focusable="false" role="presentation" class="icon icon-instagram" viewBox="0 0 24 24"><g fill="#8D8D8D" fill-rule="nonzero"><path d="M12 2.182c3.196 0 3.575.011 4.839.07 1.168.053 1.803.25 2.224.415.558.217.958.477 1.376.894.417.418.677.818.894 1.376.165.42.358 1.056.414 2.224.057 1.264.07 1.643.07 4.839 0 3.196-.01 3.575-.07 4.839-.052 1.168-.249 1.803-.414 2.224a3.721 3.721 0 0 1-.894 1.376 3.721 3.721 0 0 1-1.376.894c-.42.165-1.056.358-2.224.414-1.264.057-1.643.07-4.839.07-3.196 0-3.575-.01-4.839-.07-1.168-.052-1.803-.249-2.224-.414a3.721 3.721 0 0 1-1.376-.894 3.721 3.721 0 0 1-.894-1.376c-.165-.42-.358-1.056-.414-2.224-.057-1.264-.07-1.643-.07-4.839 0-3.196.01-3.575.07-4.839.052-1.168.249-1.803.414-2.224.217-.558.477-.958.894-1.376a3.721 3.721 0 0 1 1.376-.894c.42-.165 1.056-.358 2.224-.414 1.264-.06 1.643-.07 4.839-.07zm0-2.157c-3.253 0-3.66.014-4.937.073-1.274.06-2.144.26-2.909.558a5.78 5.78 0 0 0-2.119 1.38A5.895 5.895 0 0 0 .653 4.157C.358 4.919.154 5.789.095 7.067.035 8.344.02 8.75.02 12.004c0 3.252.014 3.66.074 4.936.06 1.274.26 2.144.558 2.91a5.853 5.853 0 0 0 1.382 2.115 5.895 5.895 0 0 0 2.123 1.382c.761.295 1.631.499 2.909.558 1.277.06 1.684.074 4.937.074 3.252 0 3.66-.014 4.936-.074 1.274-.06 2.144-.26 2.91-.558a5.853 5.853 0 0 0 2.115-1.382 5.895 5.895 0 0 0 1.382-2.123c.295-.761.499-1.631.558-2.909.06-1.277.074-1.684.074-4.937 0-3.252-.014-3.66-.074-4.936-.06-1.274-.26-2.144-.558-2.91a5.853 5.853 0 0 0-1.382-2.115A5.895 5.895 0 0 0 19.842.653c-.761-.295-1.631-.499-2.909-.558C15.66.039 15.253.025 12 .025z"></path><path d="M12 5.85a6.152 6.152 0 1 0 .001 12.302A6.152 6.152 0 0 0 12 5.85zm0 10.143a3.993 3.993 0 1 1 0-7.986 3.993 3.993 0 0 1 0 7.986z"></path><circle cx="18.393" cy="5.607" r="1.439"></circle></g></svg>